<?xml version="1.0" standalone="no"?>
<!DOCTYPE svg PUBLIC "-//W3C//DTD SVG 20010904//EN"
 "http://www.w3.org/TR/2001/REC-SVG-20010904/DTD/svg10.dtd">
<svg version="1.0" xmlns="http://www.w3.org/2000/svg"
 width="640.000000pt" height="641.000000pt" viewBox="0 0 640.000000 641.000000"
 preserveAspectRatio="xMidYMid meet">
<defs>
<linearGradient id="wepickaxeGradient" x1="0%" y1="0%" x2="100%" y2="100%">
<stop offset="0%" stop-color="#e2312d" />
<stop offset="100%" stop-color="#0b0b0d" />
</linearGradient>
</defs>

<g transform="translate(0.000000,641.000000) scale(0.100000,-0.100000)"
fill="url(#wepickaxeGradient)" stroke="none">
<path d="M0 3205 l0 -3205 3200 0 3200 0 0 3205 0 3205 -3200 0 -3200 0 0
-3205z m3574 1669 c65 -17 136 -52 136 -67 0 -5 -12 -6 -27 -2 -72 19 -212 45
-243 46 -19 0 -44 4 -55 8 -19 8 -19 8 0 19 29 16 117 15 189 -4z m-109 -168
c282 -45 639 -162 835 -274 107 -61 260 -172 321 -232 102 -102 160 -248 194
-493 l7 -49 -87 66 c-480 366 -1088 603 -1750 681 -215 26 -706 31 -920 11
-93 -9 -183 -19 -200 -22 -29 -5 -29 -4 -10 11 39 31 262 136 383 180 143 51
385 109 522 124 52 6 109 13 125 15 70 10 485 -3 580 -18z m-107 -573 c17 -4
21 -10 16 -27 -9 -34 -69 -223 -149 -471 -69 -217 -112 -356 -207 -675 -22
-74 -64 -211 -93 -305 -30 -93 -76 -246 -104 -339 -27 -93 -53 -172 -58 -176
-4 -5 -30 -4 -58 0 -27 5 -81 6 -118 3 l-68 -6 12 29 c6 16 57 164 114 329 57
165 165 476 240 690 136 389 231 658 284 810 16 44 36 97 45 119 l16 39 53 -7
c28 -4 62 -10 75 -13z m-425 -1965 c-3 -24 -9 -52 -14 -63 -6 -17 -8 -15 -9
10 0 22 -3 26 -9 16 -5 -8 -7 -21 -3 -29 3 -9 0 -13 -8 -10 -15 5 -22 48 -8
48 4 0 8 9 8 21 0 12 4 17 11 14 6 -4 13 2 16 14 10 38 21 22 16 -21z m-67 4
c-17 -16 -18 -16 -5 5 7 12 15 20 18 17 3 -2 -3 -12 -13 -22z m-43 -19 c-7 -2
-19 -2 -25 0 -7 3 -2 5 12 5 14 0 19 -2 13 -5z m5 -25 c-2 -7 3 -12 10 -10 8
1 11 -2 7 -8 -5 -8 -11 -7 -21 1 -16 13 -18 29 -4 29 6 0 9 -6 8 -12z"/>
</g>
</svg>
